<?xml version="1.0" encoding="UTF-8"?>
<svg width="181px" height="62px" viewBox="0 0 181 62" version="1.1" xmlns="http://www.w3.org/2000/svg" xmlns:xlink="http://www.w3.org/1999/xlink">
    <!-- Generator: Sketch 47.1 (45422) - http://www.bohemiancoding.com/sketch -->
    <title>register-btn</title>
    <desc>Created with Sketch.</desc>
    <defs></defs>
    <g id="Page-1" stroke="none" stroke-width="1" fill="none" fill-rule="evenodd">
        <g id="register-btn" transform="translate(1.000000, 1.000000)" stroke="#FFFFFF">
            <g id="keyhole" transform="translate(120.000000, 0.000000)">
                <path d="M0,2.88657986e-15 L57.1550747,2.88657986e-15 L57.1550747,3.10862447e-15 C58.2596442,-1.01850083e-15 59.1550747,0.8954305 59.1550747,2 L59.1550747,58 L59.1550747,58 C59.1550747,59.1045695 58.2596442,60 57.1550747,60 L0,60 L0,2.88657986e-15 Z" id="box-sml" fill="#BA8D3B"></path>
                <path d="M26.4215086,31.1569828 C23.7997758,29.8435613 22,27.1319607 22,24 C22,19.581722 25.581722,16 30,16 C34.418278,16 38,19.581722 38,24 C38,27.1319607 36.2002242,29.8435613 33.5784914,31.1569828 L39.2763932,42.5527864 L39.2763932,42.5527864 C39.5233825,43.0467649 39.3231581,43.6474379 38.8291796,43.8944272 C38.6903242,43.9638549 38.5372111,44 38.381966,44 L21.618034,44 L21.618034,44 C21.0657492,44 20.618034,43.5522847 20.618034,43 C20.618034,42.8447549 20.6541791,42.6916418 20.7236068,42.5527864 L26.4215086,31.1569828 Z" id="Shape"></path>
            </g>
            <path d="M2,0 L120,0 L120,60 L2,60 L2,60 C0.8954305,60 1.3527075e-16,59.1045695 0,58 L0,2 L0,2 C-1.3527075e-16,0.8954305 0.8954305,2.02906125e-16 2,0 Z" id="box-lrg" fill="#BA8D3B"></path>
        </g>
    </g>
</svg>