<?xml version="1.0" encoding="UTF-8"?>
<svg width="182px" height="62px" viewBox="0 0 182 62" version="1.1" xmlns="http://www.w3.org/2000/svg" xmlns:xlink="http://www.w3.org/1999/xlink">
    <!-- Generator: Sketch 46.2 (44496) - http://www.bohemiancoding.com/sketch -->
    <title>btn-register</title>
    <desc>Created with Sketch.</desc>
    <defs></defs>
    <g id="Page-1" stroke="none" stroke-width="1" fill="none" fill-rule="evenodd">
        <g id="Desktop" transform="translate(-939.000000, -849.000000)" stroke="#BA8D3B">
            <g id="btn-register" transform="translate(940.000000, 850.000000)">
                <g id="keyhole" transform="translate(120.000000, 0.000000)">
                    <path d="M0,8.8817842e-16 L58,8.8817842e-16 L58,8.8817842e-16 C59.1045695,6.85269983e-16 60,0.8954305 60,2 L60,58 L60,58 C60,59.1045695 59.1045695,60 58,60 L0,60 L0,8.8817842e-16 Z" id="box-sml" opacity="0.5"></path>
                    <path d="M26.4215086,31.1569828 C23.7997758,29.8435613 22,27.1319607 22,24 C22,19.581722 25.581722,16 30,16 C34.418278,16 38,19.581722 38,24 C38,27.1319607 36.2002242,29.8435613 33.5784914,31.1569828 L40,44 L20,44 L26.4215086,31.1569828 Z"></path>
                </g>
                <path d="M2,0 L120,0 L120,60 L2,60 L2,60 C0.8954305,60 1.3527075e-16,59.1045695 0,58 L0,2 L0,2 C-1.3527075e-16,0.8954305 0.8954305,2.02906125e-16 2,0 Z" id="box-lrg" opacity="0.5"></path>
            </g>
        </g>
    </g>
</svg>